v -4.842877E-08 1.04696 0.0319875
v -0.03198759 1.04696 -5.215406E-08
v -4.470348E-08 1.04696 -0.03198759
v 0.0319875 1.04696 -4.470348E-08
v 0.03198755 0.266082 3.72529E-09
v 7.450581E-09 0.266082 -0.03198755
v -0.03198754 0.266082 0
v 0 0.266082 0.03198754
v -4.842877E-08 1.04696 0.0319875
v 0 0.266082 0.03198754
v -0.03198754 0.266082 0
v -0.03198759 1.04696 -5.215406E-08
v -0.03198759 1.04696 -5.215406E-08
v -0.03198754 0.266082 0
v 7.450581E-09 0.266082 -0.03198755
v -4.470348E-08 1.04696 -0.03198759
v -4.470348E-08 1.04696 -0.03198759
v 7.450581E-09 0.266082 -0.03198755
v 0.03198755 0.266082 3.72529E-09
v 0.0319875 1.04696 -4.470348E-08
v 0.0319875 1.04696 -4.470348E-08
v 0.03198755 0.266082 3.72529E-09
v 0 0.266082 0.03198754
v -4.842877E-08 1.04696 0.0319875
v -5.215406E-08 1.15258 7.065386E-05
v -7.076189E-05 1.15258 -5.587935E-08
v -5.215406E-08 1.15258 -7.076561E-05
v 7.065758E-05 1.15258 -5.587935E-08
v 0.03205821 1.04696 -4.470348E-08
v -4.470348E-08 1.04696 -0.03205831
v -0.03205831 1.04696 -5.215406E-08
v -4.842877E-08 1.04696 0.03205821
v -5.215406E-08 1.15258 7.065386E-05
v -4.842877E-08 1.04696 0.03205821
v -0.03205831 1.04696 -5.215406E-08
v -7.076189E-05 1.15258 -5.587935E-08
v -7.076189E-05 1.15258 -5.587935E-08
v -0.03205831 1.04696 -5.215406E-08
v -4.470348E-08 1.04696 -0.03205831
v -5.215406E-08 1.15258 -7.076561E-05
v -5.215406E-08 1.15258 -7.076561E-05
v -4.470348E-08 1.04696 -0.03205831
v 0.03205821 1.04696 -4.470348E-08
v 7.065758E-05 1.15258 -5.587935E-08
v 7.065758E-05 1.15258 -5.587935E-08
v 0.03205821 1.04696 -4.470348E-08
v -4.842877E-08 1.04696 0.03205821
v -5.215406E-08 1.15258 7.065386E-05
v -0.06156894 0.2180286 0.004107386
v 0.06156894 0.2180286 0.004107386
v 0.06156894 0.2180286 -0.004107386
v -0.06156894 0.2180286 -0.004107386
v -0.06156894 0.2660821 -0.004107386
v 0.06156894 0.2660821 -0.004107386
v 0.06156894 0.2660821 0.004107386
v -0.06156894 0.2660821 0.004107386
v -0.06156894 0.2180286 0.004107386
v -0.06156894 0.2660821 0.004107386
v 0.06156894 0.2660821 0.004107386
v 0.06156894 0.2180286 0.004107386
v 0.06156894 0.2180286 0.004107386
v 0.06156894 0.2660821 0.004107386
v 0.06156894 0.2660821 -0.004107386
v 0.06156894 0.2180286 -0.004107386
v 0.06156894 0.2180286 -0.004107386
v 0.06156894 0.2660821 -0.004107386
v -0.06156894 0.2660821 -0.004107386
v -0.06156894 0.2180286 -0.004107386
v -0.06156894 0.2180286 -0.004107386
v -0.06156894 0.2660821 -0.004107386
v -0.06156894 0.2660821 0.004107386
v -0.06156894 0.2180286 0.004107386
v -0.01240474 0 0.01240474
v 0.01240474 0 0.01240474
v 0.01240474 0 -0.01240474
v -0.01240474 0 -0.01240474
v -0.01647321 0.2180286 -0.01647321
v 0.01647321 0.2180286 -0.01647321
v 0.01647321 0.2180286 0.01647321
v -0.01647321 0.2180286 0.01647321
v -0.01240474 0 0.01240474
v -0.01647321 0.2180286 0.01647321
v 0.01647321 0.2180286 0.01647321
v 0.01240474 0 0.01240474
v 0.01240474 0 0.01240474
v 0.01647321 0.2180286 0.01647321
v 0.01647321 0.2180286 -0.01647321
v 0.01240474 0 -0.01240474
v 0.01240474 0 -0.01240474
v 0.01647321 0.2180286 -0.01647321
v -0.01647321 0.2180286 -0.01647321
v -0.01240474 0 -0.01240474
v -0.01240474 0 -0.01240474
v -0.01647321 0.2180286 -0.01647321
v -0.01647321 0.2180286 0.01647321
v -0.01240474 0 0.01240474
v -0.01608348 -0.02156903 0.01608348
v 0.01608348 -0.02156903 0.01608348
v 0.01608348 -0.02156903 -0.01608348
v -0.01608348 -0.02156903 -0.01608348
v -0.01608348 0 -0.01608348
v 0.01608348 0 -0.01608348
v 0.01608348 0 0.01608348
v -0.01608348 0 0.01608348
v -0.01608348 -0.02156903 0.01608348
v -0.01608348 0 0.01608348
v 0.01608348 0 0.01608348
v 0.01608348 -0.02156903 0.01608348
v 0.01608348 -0.02156903 0.01608348
v 0.01608348 0 0.01608348
v 0.01608348 0 -0.01608348
v 0.01608348 -0.02156903 -0.01608348
v 0.01608348 -0.02156903 -0.01608348
v 0.01608348 0 -0.01608348
v -0.01608348 0 -0.01608348
v -0.01608348 -0.02156903 -0.01608348
v -0.01608348 -0.02156903 -0.01608348
v -0.01608348 0 -0.01608348
v -0.01608348 0 0.01608348
v -0.01608348 -0.02156903 0.01608348
vn -3.331082E-08 0.9991649 0.04086089
vn -0.04086095 0.9991649 -3.312856E-08
vn -2.855213E-08 0.9991649 -0.04086094
vn 0.04086089 0.9991649 -2.836987E-08
vn 0.04086097 -0.9991649 3.441436E-08
vn 3.198826E-08 -0.9991649 -0.0408609
vn -0.04086091 -0.9991649 2.965567E-08
vn 2.722957E-08 -0.9991649 0.04086097
vn -0.486162 0.6852409 0.5423018
vn -0.4861619 -0.6852409 0.5423019
vn -0.5423018 -0.6852409 0.486162
vn -0.5423019 0.6852409 0.4861619
vn -0.5423018 0.6852409 -0.4861621
vn -0.5423018 -0.685241 -0.486162
vn -0.4861619 -0.685241 -0.5423018
vn -0.486162 0.6852409 -0.542302
vn 0.486162 0.6852409 -0.5423018
vn 0.4861621 -0.6852409 -0.5423018
vn 0.542302 -0.6852409 -0.4861619
vn 0.5423018 0.6852409 -0.486162
vn 0.5423018 0.685241 0.486162
vn 0.5423018 -0.6852409 0.4861621
vn 0.4861619 -0.6852409 0.542302
vn 0.4861619 0.685241 0.5423018
vn -2.600513E-08 0.9999998 0.0006694456
vn -0.0006695049 0.9999998 -3.35139E-08
vn -2.586735E-08 0.9999998 -0.0006695124
vn 0.000669453 0.9999998 -3.337612E-08
vn 0.2694217 -0.9630222 4.10915E-08
vn 4.696172E-08 -0.9630224 -0.2694216
vn -0.2694216 -0.9630224 9.783691E-09
vn 1.56539E-08 -0.9630222 0.2694217
vn -0.4444079 0.7773274 0.4452683
vn -0.450122 -0.4201705 0.7879385
vn -0.7879385 -0.4201705 0.4501219
vn -0.4452685 0.7773274 0.4444077
vn -0.4452684 0.7773272 -0.4444079
vn -0.7879384 -0.4201706 -0.450122
vn -0.4501218 -0.4201706 -0.7879385
vn -0.4444078 0.7773272 -0.4452685
vn 0.4444079 0.7773274 -0.4452684
vn 0.4501221 -0.4201706 -0.7879384
vn 0.7879385 -0.4201705 -0.4501218
vn 0.4452684 0.7773272 -0.4444077
vn 0.4452683 0.7773274 0.4444078
vn 0.7879385 -0.4201705 0.450122
vn 0.450122 -0.4201705 0.7879385
vn 0.4444077 0.7773274 0.4452684
vn -0.563177 -0.8254817 0.03757064
vn 0.563177 -0.8254817 0.03757064
vn 0.563177 -0.8254817 -0.03757064
vn -0.563177 -0.8254817 -0.03757064
vn -0.5631769 0.8254818 -0.03757064
vn 0.5631769 0.8254818 -0.03757064
vn 0.5631769 0.8254818 0.03757064
vn -0.5631769 0.8254818 0.03757064
vn -0.6379687 -0.2489617 0.7287069
vn -0.6379688 0.2489618 0.728707
vn 0.6379688 0.2489618 0.728707
vn 0.6379687 -0.2489617 0.7287069
vn 0.9822893 -0.1846911 0.03157306
vn 0.9822893 0.1846912 0.03157306
vn 0.9822893 0.1846912 -0.03157306
vn 0.9822893 -0.1846911 -0.03157306
vn 0.6379687 -0.2489617 -0.7287069
vn 0.6379688 0.2489618 -0.728707
vn -0.6379688 0.2489618 -0.728707
vn -0.6379687 -0.2489617 -0.7287069
vn -0.9822893 -0.1846911 -0.03157306
vn -0.9822893 0.1846912 -0.03157306
vn -0.9822893 0.1846912 0.03157306
vn -0.9822893 -0.1846911 0.03157306
vn -0.05635158 -0.9968194 0.05635158
vn 0.05635158 -0.9968194 0.05635158
vn 0.05635158 -0.9968194 -0.05635158
vn -0.05635158 -0.9968194 -0.05635158
vn -0.07429821 0.9944645 -0.07429821
vn 0.07429821 0.9944645 -0.07429821
vn 0.07429821 0.9944645 0.07429821
vn -0.07429821 0.9944645 0.07429821
vn -0.07470597 -0.6689308 0.7395612
vn -0.09831934 0.6382321 0.76354
vn 0.09831934 0.6382321 0.76354
vn 0.07470597 -0.6689308 0.7395612
vn 0.7395612 -0.6689308 0.07470597
vn 0.76354 0.6382321 0.09831934
vn 0.76354 0.6382321 -0.09831934
vn 0.7395612 -0.6689308 -0.07470597
vn 0.07470597 -0.6689308 -0.7395612
vn 0.09831934 0.6382321 -0.76354
vn -0.09831934 0.6382321 -0.76354
vn -0.07470597 -0.6689308 -0.7395612
vn -0.7395612 -0.6689308 -0.07470597
vn -0.76354 0.6382321 -0.09831934
vn -0.76354 0.6382321 0.09831934
vn -0.7395612 -0.6689308 0.07470597
vn -0.3780139 -0.8451101 0.3780139
vn 0.3780139 -0.8451101 0.3780139
vn 0.3780139 -0.8451101 -0.3780139
vn -0.3780139 -0.8451101 -0.3780139
vn -0.3780139 0.8451101 -0.3780139
vn 0.3780139 0.8451101 -0.3780139
vn 0.3780139 0.8451101 0.3780139
vn -0.3780139 0.8451101 0.3780139
vn -0.3529037 -0.2366339 0.9052421
vn -0.3529037 0.2366339 0.9052421
vn 0.3529037 0.2366339 0.9052421
vn 0.3529037 -0.2366339 0.9052421
vn 0.9052421 -0.2366339 0.3529037
vn 0.9052421 0.2366339 0.3529037
vn 0.9052421 0.2366339 -0.3529037
vn 0.9052421 -0.2366339 -0.3529037
vn 0.3529037 -0.2366339 -0.9052421
vn 0.3529037 0.2366339 -0.9052421
vn -0.3529037 0.2366339 -0.9052421
vn -0.3529037 -0.2366339 -0.9052421
vn -0.9052421 -0.2366339 -0.3529037
vn -0.9052421 0.2366339 -0.3529037
vn -0.9052421 0.2366339 0.3529037
vn -0.9052421 -0.2366339 0.3529037
vt 0.5839583 0.1679167
vt 0.5012501 0.1679167
vt 0.4185417 0.1679167
vt 0.6666667 0.1679167
vt 0.6666667 0.002638616
vt 0.4185417 0.002638616
vt 0.5012499 0.002638616
vt 0.5839584 0.002638616
vt 0.5839583 0.1679167
vt 0.5839584 0.002638616
vt 0.5012499 0.002638616
vt 0.5012501 0.1679167
vt 0.5012501 0.1679167
vt 0.5012499 0.002638616
vt 0.4185417 0.002638616
vt 0.4185417 0.1679167
vt 0.4185417 0.1679167
vt 0.4185417 0.002638616
vt 0.6666667 0.002638616
vt 0.6666667 0.1679167
vt 0.6666667 0.1679167
vt 0.6666667 0.002638616
vt 0.5839584 0.002638616
vt 0.5839583 0.1679167
vt 0.2506249 0.50125
vt 0.1679168 0.50125
vt 0.08520839 0.50125
vt 0.3333333 0.50125
vt 0.3333333 0.3429639
vt 0.08520839 0.3429639
vt 0.1679165 0.3429639
vt 0.250625 0.3429639
vt 0.2506249 0.50125
vt 0.250625 0.3429639
vt 0.1679165 0.3429639
vt 0.1679168 0.50125
vt 0.1679168 0.50125
vt 0.1679165 0.3429639
vt 0.08520839 0.3429639
vt 0.08520839 0.50125
vt 0.08520839 0.50125
vt 0.08520839 0.3429639
vt 0.3333333 0.3429639
vt 0.3333333 0.50125
vt 0.3333333 0.50125
vt 0.3333333 0.3429639
vt 0.250625 0.3429639
vt 0.2506249 0.50125
vt 0.8380906 0.1679167
vt 0.9964926 0.1679167
vt 0.6726741 0.1679167
vt 0.8310761 0.1679167
vt 0.8310761 0.2695518
vt 0.6726741 0.2695518
vt 0.9964926 0.2695518
vt 0.8380906 0.2695518
vt 0.8380906 0.1679167
vt 0.8380906 0.2695518
vt 0.9964926 0.2695518
vt 0.9964926 0.1679167
vt 0.9964926 0.1679167
vt 0.9964926 0.2695518
vt 0.6726741 0.2695518
vt 0.6726741 0.1679167
vt 0.6726741 0.1679167
vt 0.6726741 0.2695518
vt 0.8310761 0.2695518
vt 0.8310761 0.1679167
vt 0.8310761 0.1679167
vt 0.8310761 0.2695518
vt 0.8380906 0.2695518
vt 0.8380906 0.1679167
vt 0.2092707 0.1679167
vt 0.2919792 0.1679167
vt 0.0438542 0.1679167
vt 0.1265626 0.1679167
vt 0.1265626 0.332397
vt 0.0438542 0.332397
vt 0.2919792 0.332397
vt 0.2092707 0.332397
vt 0.2092707 0.1679167
vt 0.2092707 0.332397
vt 0.2919792 0.332397
vt 0.2919792 0.1679167
vt 0.2919792 0.1679167
vt 0.2919792 0.332397
vt 0.0438542 0.332397
vt 0.0438542 0.1679167
vt 0.0438542 0.1679167
vt 0.0438542 0.332397
vt 0.1265626 0.332397
vt 0.1265626 0.1679167
vt 0.1265626 0.1679167
vt 0.1265626 0.332397
vt 0.2092707 0.332397
vt 0.2092707 0.1679167
vt 0.5426041 0.50125
vt 0.6253125 0.50125
vt 0.3771876 0.50125
vt 0.4598959 0.50125
vt 0.4598959 0.615072
vt 0.3771876 0.615072
vt 0.6253124 0.615072
vt 0.5426041 0.615072
vt 0.5426041 0.50125
vt 0.5426041 0.615072
vt 0.6253124 0.615072
vt 0.6253125 0.50125
vt 0.6253125 0.50125
vt 0.6253124 0.615072
vt 0.3771876 0.615072
vt 0.3771876 0.50125
vt 0.3771876 0.50125
vt 0.3771876 0.615072
vt 0.4598959 0.615072
vt 0.4598959 0.50125
vt 0.4598959 0.50125
vt 0.4598959 0.615072
vt 0.5426041 0.615072
vt 0.5426041 0.50125
f 4/4/4 2/2/2 1/1/1
f 4/4/4 3/3/3 2/2/2
f 8/8/8 6/6/6 5/5/5
f 8/8/8 7/7/7 6/6/6
f 12/12/12 10/10/10 9/9/9
f 12/12/12 11/11/11 10/10/10
f 16/16/16 14/14/14 13/13/13
f 16/16/16 15/15/15 14/14/14
f 20/20/20 18/18/18 17/17/17
f 20/20/20 19/19/19 18/18/18
f 24/24/24 22/22/22 21/21/21
f 24/24/24 23/23/23 22/22/22
f 28/28/28 26/26/26 25/25/25
f 28/28/28 27/27/27 26/26/26
f 32/32/32 30/30/30 29/29/29
f 32/32/32 31/31/31 30/30/30
f 36/36/36 34/34/34 33/33/33
f 36/36/36 35/35/35 34/34/34
f 40/40/40 38/38/38 37/37/37
f 40/40/40 39/39/39 38/38/38
f 44/44/44 42/42/42 41/41/41
f 44/44/44 43/43/43 42/42/42
f 48/48/48 46/46/46 45/45/45
f 48/48/48 47/47/47 46/46/46
f 52/52/52 50/50/50 49/49/49
f 52/52/52 51/51/51 50/50/50
f 56/56/56 54/54/54 53/53/53
f 56/56/56 55/55/55 54/54/54
f 60/60/60 58/58/58 57/57/57
f 60/60/60 59/59/59 58/58/58
f 64/64/64 62/62/62 61/61/61
f 64/64/64 63/63/63 62/62/62
f 68/68/68 66/66/66 65/65/65
f 68/68/68 67/67/67 66/66/66
f 72/72/72 70/70/70 69/69/69
f 72/72/72 71/71/71 70/70/70
f 76/76/76 74/74/74 73/73/73
f 76/76/76 75/75/75 74/74/74
f 80/80/80 78/78/78 77/77/77
f 80/80/80 79/79/79 78/78/78
f 84/84/84 82/82/82 81/81/81
f 84/84/84 83/83/83 82/82/82
f 88/88/88 86/86/86 85/85/85
f 88/88/88 87/87/87 86/86/86
f 92/92/92 90/90/90 89/89/89
f 92/92/92 91/91/91 90/90/90
f 96/96/96 94/94/94 93/93/93
f 96/96/96 95/95/95 94/94/94
f 100/100/100 98/98/98 97/97/97
f 100/100/100 99/99/99 98/98/98
f 104/104/104 102/102/102 101/101/101
f 104/104/104 103/103/103 102/102/102
f 108/108/108 106/106/106 105/105/105
f 108/108/108 107/107/107 106/106/106
f 112/112/112 110/110/110 109/109/109
f 112/112/112 111/111/111 110/110/110
f 116/116/116 114/114/114 113/113/113
f 116/116/116 115/115/115 114/114/114
f 120/120/120 118/118/118 117/117/117
f 120/120/120 119/119/119 118/118/118
